<svg width="36" height="41" viewBox="0 0 36 41" fill="none" xmlns="http://www.w3.org/2000/svg">
<g clip-path="url(#clip0_49_116)">
<path fill-rule="evenodd" clip-rule="evenodd" d="M24.7402 31.368H25.1768C28.1036 31.368 30.4762 28.5506 30.4762 25.0908H30.35H17.2257V1.55127H15.9006V25.0908H2.7763H2.6501C2.6501 26.4656 3.02318 27.7372 3.65597 28.7712C4.06859 28.5347 4.48375 28.316 4.9012 28.1159C4.59899 27.6886 4.35986 27.1967 4.20035 26.6601H9.99624C10.7479 26.5927 11.5036 26.5913 12.2622 26.6601H28.9243C28.3781 28.4864 26.906 29.7987 25.1758 29.7987H19.9935C21.6114 30.7023 23.1958 31.2096 24.7402 31.368ZM30.4762 23.5215H18.5507V9.39779L30.4762 23.5215ZM27.1636 21.9522H19.8758V13.321L27.1636 21.9522ZM6.62526 10.1824C2.6501 18.029 2.6501 23.5215 2.6501 23.5215H14.5756C14.5756 23.5215 13.2505 21.1676 13.2505 14.1057C13.2505 7.04383 14.5756 1.55127 14.5756 1.55127C14.5756 1.55127 10.6004 2.33592 6.62526 10.1824ZM7.15103 12.2367C4.10767 19.0781 4.10767 21.9522 4.10767 21.9522H12.7205C12.7205 21.9522 11.9255 19.1138 11.9255 14.1057C11.9255 9.09761 12.7205 4.33165 12.7205 4.33165C12.7205 4.33165 9.75191 6.38997 7.15103 12.2367ZM0 32.9378C0.572909 32.4366 1.19448 31.9431 1.86103 31.472C7.20355 27.696 13.0464 26.8192 18.848 30.6842C24.1762 34.2338 29.1651 33.4479 33.5829 29.9744C34.4084 29.3253 35.1428 28.6302 35.7764 27.9358V30.0109C35.3245 30.445 34.8371 30.8719 34.3157 31.2818C29.5163 35.0554 24.009 35.9229 18.1983 32.0519C12.8691 28.5017 7.5119 29.3056 2.54006 32.8196C1.5958 33.487 0.747114 34.2022 0.00841698 34.9162C0.00560567 34.9189 0.00280006 34.9217 0 34.9244V32.9378ZM3.94757 34.87C8.70687 32.2568 13.7931 32.0246 18.848 35.3921C23.461 38.4653 27.8197 38.2887 31.7737 35.9317V37.6722C27.6093 39.9216 23.0077 39.9638 18.1983 36.7598C13.3685 33.5423 8.51568 33.9011 3.94757 36.6124V34.87Z" fill="#EFF6FF"/>
</g>
<defs>
<clipPath id="clip0_49_116">
<rect width="36" height="41" fill="white"/>
</clipPath>
</defs>
</svg>
