<svg width="81" height="67" viewBox="0 0 81 67" fill="none" xmlns="http://www.w3.org/2000/svg">
<g id="octopus-svgrepo-com 1" clip-path="url(#clip0_54_131)">
<g id="Group">
<g id="XMLID_24_">
<g id="Group_2">
<path id="Vector" d="M24.277 27.1062V34.1532C24.277 36.6724 21.7782 38.7233 18.7089 38.7233C15.6379 38.7233 13.1409 36.6724 13.1409 34.1532V31.5296C13.1409 31.1403 13.5258 30.8243 14.0001 30.8243C14.4727 30.8243 14.8594 31.1403 14.8594 31.5296V34.1532C14.8594 35.8952 16.5865 37.3128 18.7089 37.3128C20.8313 37.3128 22.5584 35.8952 22.5584 34.1532V27.5505C23.0809 27.4645 23.6016 27.3347 24.112 27.1612C24.167 27.1415 24.222 27.1245 24.277 27.1062Z" fill="#E5D665"/>
<path id="Vector_2" d="M68.0652 31.5296V34.1532C68.0652 36.6724 65.5664 38.7233 62.4971 38.7233C59.4261 38.7233 56.9291 36.6724 56.9291 34.1532V27.1062C56.9824 27.1245 57.0373 27.1415 57.0923 27.1612C57.6045 27.3347 58.1235 27.4631 58.6476 27.5491V34.1532C58.6476 35.8952 60.3747 37.3128 62.4971 37.3128C64.6195 37.3128 66.3466 35.8952 66.3466 34.1532V31.5296C66.3466 31.1403 66.7316 30.8243 67.2059 30.8243C67.6785 30.8243 68.0652 31.1403 68.0652 31.5296Z" fill="#E5D665"/>
<path id="Vector_3" d="M45.7587 54.6425V63.2297C45.7587 63.6191 45.372 63.935 44.8994 63.935C44.4251 63.935 44.0402 63.6191 44.0402 63.2297V45.9099C44.0402 45.3259 43.4628 44.852 42.7513 44.852C42.0381 44.852 41.4624 45.3259 41.4624 45.9099V56.8415C41.4624 57.2294 41.0757 57.5467 40.6031 57.5467C40.1288 57.5467 39.7438 57.2294 39.7438 56.8415V45.9099C39.7438 45.3259 39.1664 44.852 38.4549 44.852C37.7418 44.852 37.166 45.3259 37.166 45.9099V63.2297C37.166 63.6191 36.7794 63.935 36.3068 63.935C35.8325 63.935 35.4475 63.6191 35.4475 63.2297V54.6425V45.7688V42.4541C35.4475 40.1211 37.7607 38.2225 40.6031 38.2225C43.4456 38.2225 45.7587 40.1211 45.7587 42.4541V45.7688V54.6425ZM44.6193 41.3751C44.8805 40.832 44.5575 40.217 43.8958 40.0012C41.7717 39.3115 39.4328 39.3115 37.3104 40.0012C36.6488 40.217 36.324 40.832 36.5852 41.3751C36.8481 41.9181 37.5974 42.1833 38.259 41.9689C39.7696 41.478 41.4349 41.478 42.9472 41.9689C43.1019 42.0197 43.2634 42.0436 43.4198 42.0436C43.9336 42.0436 44.4183 41.7898 44.6193 41.3751Z" fill="#E5D665"/>
<path id="Vector_4" d="M63.7689 45.6899V46.8056C63.7689 49.3248 61.3303 51.4208 58.3349 51.4801C56.8226 51.5083 55.3962 51.047 54.3136 50.1796C53.2292 49.3107 52.6328 48.1498 52.6328 46.9114V42.031C52.6328 38.7825 50.6857 35.7414 47.4222 33.8964C45.537 32.8301 44.4131 31.1135 44.4131 29.3024V29.2657C44.4131 28.6027 45.0472 28.0597 45.8446 28.023V29.3122C45.8446 29.8962 46.4203 30.3701 47.1335 30.3701C47.845 30.3701 48.4224 29.8962 48.4224 29.3122V28.0202H50.6256C51.3371 28.0202 51.9145 27.5463 51.9145 26.9623C51.9145 26.3783 51.3371 25.9044 50.6256 25.9044H45.9305C43.6724 25.9044 41.8353 27.4123 41.8353 29.2657V29.3024C41.8353 31.8089 43.3768 34.1771 45.9598 35.6384C48.5238 37.0885 50.055 39.4779 50.055 42.031V54.6876C50.055 56.407 51.6601 57.8204 53.7121 57.9036C55.2209 57.9657 56.637 57.2928 57.3279 56.1926C57.4774 55.9543 57.7712 55.8062 58.0926 55.8062C58.5326 55.8062 58.7594 56.0459 58.8367 56.1489C58.9089 56.2476 59.0601 56.5072 58.8745 56.8076C57.907 58.3733 55.8963 59.3579 53.7688 59.317C50.7734 59.2591 48.3365 57.1617 48.3365 54.6425V42.4541C48.3365 38.9532 44.8668 36.1067 40.6031 36.1067C36.3377 36.1067 32.8697 38.9532 32.8697 42.4541V54.6425C32.8697 57.1617 30.4311 59.2591 27.4357 59.317C25.3047 59.3579 23.2992 58.3733 22.3316 56.8076C22.146 56.5072 22.2956 56.2476 22.3694 56.1489C22.4468 56.0459 22.6736 55.8062 23.1119 55.8062C23.4349 55.8062 23.7271 55.9543 23.8766 56.1912C24.5692 57.2928 25.987 57.9671 27.4941 57.9036C29.5443 57.8204 31.1512 56.407 31.1512 54.6876V42.031C31.1512 39.9603 32.1342 38.011 33.9163 36.5454C34.3356 36.2027 34.7944 35.8909 35.2808 35.6187C37.8414 34.1856 39.3709 31.8103 39.3709 29.2657C39.3709 27.4123 37.5338 25.9044 35.2756 25.9044H30.5789C29.8674 25.9044 29.29 26.3783 29.29 26.9623C29.29 27.5463 29.8674 28.0202 30.5789 28.0202H32.7838V29.3122C32.7838 29.8962 33.3595 30.3701 34.0727 30.3701C34.7841 30.3701 35.3616 29.8962 35.3616 29.3122V28.023C36.1572 28.0597 36.7931 28.6027 36.7931 29.2657C36.7931 31.1092 35.6846 32.8315 33.8286 33.8711C33.21 34.2166 32.6274 34.613 32.0946 35.0488C29.8227 36.9164 28.5734 39.3961 28.5734 42.031V46.8056C28.5734 49.3248 26.1348 51.4208 23.1394 51.4801C21.6253 51.5083 20.2007 51.047 19.118 50.1796C18.0336 49.3107 17.4373 48.1498 17.4373 46.9114V45.7491C17.4373 45.3415 17.8222 44.9916 18.2793 44.986C18.5148 44.9818 18.733 45.0537 18.898 45.1877C19.0647 45.3217 19.1558 45.4994 19.1558 45.6899V46.8507C19.1558 48.5716 20.7626 49.9849 22.8128 50.0667C23.88 50.109 24.8871 49.8015 25.6587 49.1978C26.4183 48.604 26.8548 47.7704 26.8548 46.9114V34.7808C26.8548 33.2561 28.3654 32.0162 30.2231 32.0162C30.9346 32.0162 31.512 31.5423 31.512 30.9583C31.512 30.3744 30.9346 29.9004 30.2231 29.9004C28.9721 29.9004 27.812 30.2192 26.8548 30.7623V26.3149C31.2818 25.0835 35.8943 24.4586 40.6031 24.4586C45.3119 24.4586 49.9227 25.0835 54.3514 26.3149V30.7623C53.3924 30.2192 52.2324 29.9004 50.983 29.9004C50.2698 29.9004 49.6941 30.3744 49.6941 30.9583C49.6941 31.5423 50.2698 32.0162 50.983 32.0162C52.8408 32.0162 54.3514 33.2561 54.3514 34.7808V46.8507C54.3514 48.5716 55.9582 49.9849 58.0084 50.0667C59.0687 50.109 60.0827 49.8015 60.8543 49.1992C61.6139 48.604 62.0504 47.7704 62.0504 46.9114V45.7491C62.0504 45.3415 62.4353 44.9916 62.8942 44.986C63.1245 44.9832 63.3462 45.0537 63.5111 45.1863C63.6778 45.3203 63.7689 45.4994 63.7689 45.6899Z" fill="#E5D665"/>
<path id="Vector_5" d="M40.6031 9.87097C42.0707 9.87097 43.2668 10.8513 43.2668 12.0573C43.2668 13.2619 42.0707 14.2436 40.6031 14.2436C39.1337 14.2436 37.9393 13.2619 37.9393 12.0573C37.9393 10.8513 39.1337 9.87097 40.6031 9.87097Z" fill="#E5D665"/>
<path id="Vector_6" d="M64.6729 23.7096C63.1795 25.3811 60.4848 26.0271 58.0823 25.2076C52.5143 23.3062 46.6335 22.3428 40.6031 22.3428C34.5728 22.3428 28.6902 23.3062 23.1222 25.2076C20.7197 26.0285 18.025 25.3811 16.5316 23.7096C24.2496 21.3258 32.3387 20.117 40.6031 20.117C48.8658 20.117 56.955 21.3258 64.6729 23.7096Z" fill="#5B79CE"/>
<path id="Vector_7" d="M71.1551 13.7104L65.9428 21.8407C57.8244 19.2933 49.3057 18.0012 40.603 18.0012C31.8986 18.0012 23.3799 19.2933 15.2632 21.8407L10.0492 13.7104L11.4137 13.5158C16.9869 12.7202 21.883 10.2123 25.2015 6.45326C26.2928 5.21905 27.5714 4.13435 29.0132 3.22174C32.4331 5.1457 36.4201 6.15846 40.603 6.15846C44.7859 6.15846 48.7729 5.1457 52.1928 3.22174C53.6329 4.13435 54.9132 5.21764 56.0028 6.45326C59.3213 10.2123 64.2191 12.7202 69.7906 13.5158L71.1551 13.7104ZM45.8445 12.0573C45.8445 9.68477 43.4919 7.75517 40.603 7.75517C37.7124 7.75517 35.3615 9.68477 35.3615 12.0573C35.3615 14.4298 37.7124 16.3594 40.603 16.3594C43.4919 16.3594 45.8445 14.4298 45.8445 12.0573Z" fill="#5B79CE"/>
<path id="Vector_8" d="M74.2777 12.4508C74.4582 12.7541 74.453 13.1109 74.2606 13.41L67.4002 24.1102C66.1147 26.116 63.7775 27.3714 61.2255 27.6295V34.1532C61.2255 34.7287 61.796 35.197 62.4972 35.197C63.1983 35.197 63.7689 34.7287 63.7689 34.1532V31.5296C63.7689 29.9738 65.3104 28.7085 67.206 28.7085C69.1015 28.7085 70.643 29.9738 70.643 31.5296V34.1532C70.643 37.8389 66.9877 40.8391 62.4972 40.8391C60.3456 40.8391 58.3865 40.1493 56.9291 39.0265V46.8507C56.9291 47.4319 57.4688 47.927 58.1338 47.9538C58.4861 47.9679 58.8212 47.8649 59.0756 47.666C59.3316 47.4671 59.4726 47.1991 59.4726 46.9114V45.7491C59.4726 44.1877 60.9866 42.897 62.8478 42.8702C63.7758 42.8547 64.6539 43.1425 65.3173 43.677C65.9807 44.2116 66.3467 44.9268 66.3467 45.6899V46.8056C66.3467 50.4631 62.779 53.5098 58.3968 53.5959C58.3297 53.5959 58.2644 53.5973 58.1974 53.5973C56.1146 53.5973 54.1537 52.9569 52.6328 51.7847V54.6876C52.6328 55.2687 53.1741 55.7638 53.8392 55.7906C54.3376 55.809 54.8067 55.5875 55.037 55.2222C55.6299 54.2771 56.8002 53.6904 58.0926 53.6904C58.1269 53.6904 58.1613 53.6904 58.1957 53.6918C59.3626 53.72 60.4178 54.2193 61.033 55.0417C61.6585 55.8781 61.7101 56.8951 61.1739 57.764C59.7871 60.0067 56.9463 61.4342 53.8976 61.4342C53.8341 61.4342 53.7722 61.4328 53.7086 61.4313C51.6395 61.3918 49.7525 60.6908 48.3365 59.5779V63.2298C48.3365 64.7856 46.7949 66.0508 44.8994 66.0508C43.0039 66.0508 41.4623 64.7856 41.4623 63.2298V59.5694C41.1874 59.6273 40.9004 59.6625 40.6031 59.6625C40.3058 59.6625 40.0188 59.6273 39.7438 59.5694V63.2298C39.7438 64.7856 38.2023 66.0508 36.3067 66.0508C34.4112 66.0508 32.8697 64.7856 32.8697 63.2298V59.5779C31.4536 60.6908 29.5666 61.3918 27.4975 61.4313C27.4339 61.4328 27.3704 61.4342 27.3068 61.4342C24.2581 61.4342 21.4174 60.0067 20.0322 57.764C19.4943 56.8951 19.5476 55.8781 20.1714 55.0417C20.8056 54.1953 21.9037 53.6904 23.1118 53.6904C24.4042 53.6904 25.5745 54.2771 26.1691 55.2222C26.3977 55.5875 26.8685 55.809 27.3669 55.7906C28.032 55.7638 28.5733 55.2687 28.5733 54.6876V51.741C27.1573 52.8539 25.2703 53.555 23.2012 53.5959C23.1703 53.5959 23.141 53.5959 23.1101 53.5959C23.074 53.5973 23.0379 53.5973 23.0018 53.5973C20.864 53.5973 18.8533 52.9245 17.3169 51.6931C15.7324 50.4222 14.8594 48.7239 14.8594 46.9114V45.7491C14.8594 44.1877 16.3717 42.897 18.2329 42.8702C19.1644 42.8561 20.0408 43.1425 20.7042 43.677C21.3675 44.2116 21.7336 44.9268 21.7336 45.6899V46.8507C21.7336 47.4319 22.2732 47.927 22.9383 47.9538C23.2906 47.9679 23.6257 47.8649 23.88 47.666C24.1361 47.4671 24.277 47.1991 24.277 46.9114V39.0265C22.818 40.1493 20.8605 40.8391 18.7089 40.8391C14.2167 40.8391 10.5631 37.8389 10.5631 34.1532V31.5296C10.5631 29.9738 12.1046 28.7085 14.0002 28.7085C15.8957 28.7085 17.4372 29.9738 17.4372 31.5296V34.1532C17.4372 34.7287 18.0078 35.197 18.7089 35.197C19.4101 35.197 19.9807 34.7287 19.9807 34.1532V27.6281C17.4269 27.3685 15.0914 26.116 13.8042 24.1102L6.94386 13.41C6.75139 13.1109 6.74623 12.7541 6.9284 12.4508C7.10884 12.1476 7.4577 11.9332 7.86328 11.8753L10.9721 11.4324C15.8802 10.7314 20.192 8.5225 23.1135 5.212C24.5554 3.58002 26.2894 2.17796 28.2691 1.04671C28.7263 0.784355 29.3364 0.794229 29.7832 1.07069C32.9195 3.01581 36.6607 4.04267 40.6031 4.04267C44.5437 4.04267 48.2849 3.01581 51.423 1.07069C51.868 0.794229 52.4799 0.784355 52.937 1.04671C54.915 2.17796 56.649 3.58002 58.0909 5.212C61.0141 8.5225 65.3259 10.7314 70.2323 11.4324L73.3411 11.8753C73.7467 11.9332 74.0956 12.1476 74.2777 12.4508ZM65.9428 21.8407L71.1552 13.7104L69.7906 13.5158C64.2192 12.7202 59.3213 10.2123 56.0028 6.45326C54.9133 5.21764 53.633 4.13435 52.1929 3.22174C48.773 5.1457 44.786 6.15846 40.6031 6.15846C36.4202 6.15846 32.4332 5.1457 29.0133 3.22174C27.5714 4.13435 26.2928 5.21905 25.2016 6.45326C21.8831 10.2123 16.987 12.7202 11.4138 13.5158L10.0493 13.7104L15.2633 21.8407C23.3799 19.2933 31.8987 18.0012 40.6031 18.0012C49.3057 18.0012 57.8245 19.2933 65.9428 21.8407ZM68.0652 34.1532V31.5296C68.0652 31.1403 67.6786 30.8243 67.206 30.8243C66.7317 30.8243 66.3467 31.1403 66.3467 31.5296V34.1532C66.3467 35.8952 64.6196 37.3128 62.4972 37.3128C60.3748 37.3128 58.6477 35.8952 58.6477 34.1532V27.5491C58.1235 27.463 57.6045 27.3347 57.0924 27.1612C57.0374 27.1414 56.9824 27.1245 56.9291 27.1062V34.1532C56.9291 36.6724 59.4262 38.7233 62.4972 38.7233C65.5665 38.7233 68.0652 36.6724 68.0652 34.1532ZM63.7689 46.8056V45.6899C63.7689 45.4994 63.6778 45.3203 63.5111 45.1863C63.3461 45.0537 63.1244 44.9832 62.8942 44.986C62.4353 44.9917 62.0504 45.3415 62.0504 45.7491V46.9114C62.0504 47.7704 61.6139 48.604 60.8543 49.1993C60.0826 49.8016 59.0687 50.109 58.0084 50.0667C55.9582 49.9849 54.3513 48.5716 54.3513 46.8507V34.7809C54.3513 33.2561 52.8407 32.0162 50.983 32.0162C50.2698 32.0162 49.6941 31.5423 49.6941 30.9583C49.6941 30.3744 50.2698 29.9004 50.983 29.9004C52.2324 29.9004 53.3924 30.2192 54.3513 30.7623V26.3149C49.9227 25.0835 45.3118 24.4586 40.6031 24.4586C35.8943 24.4586 31.2817 25.0835 26.8548 26.3149V30.7623C27.812 30.2192 28.972 29.9004 30.2231 29.9004C30.9346 29.9004 31.512 30.3744 31.512 30.9583C31.512 31.5423 30.9346 32.0162 30.2231 32.0162C28.3654 32.0162 26.8548 33.2561 26.8548 34.7809V46.9114C26.8548 47.7704 26.4183 48.604 25.6587 49.1978C24.8871 49.8015 23.88 50.109 22.8128 50.0667C20.7626 49.9849 19.1558 48.5716 19.1558 46.8507V45.6899C19.1558 45.4994 19.0647 45.3217 18.898 45.1877C18.733 45.0537 18.5148 44.9818 18.2793 44.986C17.8222 44.9917 17.4372 45.3415 17.4372 45.7491V46.9114C17.4372 48.1498 18.0336 49.3107 19.118 50.1796C20.2006 51.047 21.6253 51.5083 23.1393 51.4801C26.1347 51.4208 28.5733 49.3248 28.5733 46.8056V42.031C28.5733 39.3961 29.8227 36.9164 32.0946 35.0489C32.6273 34.613 33.2099 34.2166 33.8286 33.8711C35.6846 32.8315 36.7931 31.1093 36.7931 29.2657C36.7931 28.6028 36.1572 28.0597 35.3615 28.023V29.3122C35.3615 29.8962 34.7841 30.3701 34.0726 30.3701C33.3594 30.3701 32.7837 29.8962 32.7837 29.3122V28.0202H30.5789C29.8674 28.0202 29.29 27.5463 29.29 26.9623C29.29 26.3784 29.8674 25.9044 30.5789 25.9044H35.2756C37.5338 25.9044 39.3709 27.4123 39.3709 29.2657C39.3709 31.8103 37.8414 34.1856 35.2808 35.6187C34.7944 35.8909 34.3356 36.2027 33.9162 36.5454C32.1341 38.011 31.1511 39.9603 31.1511 42.031V54.6876C31.1511 56.407 29.5443 57.8204 27.4941 57.9036C25.9869 57.9671 24.5691 57.2929 23.8766 56.1912C23.7271 55.9543 23.4349 55.8062 23.1118 55.8062C22.6736 55.8062 22.4468 56.0459 22.3694 56.1489C22.2955 56.2477 22.146 56.5072 22.3316 56.8076C23.2991 58.3733 25.3047 59.3579 27.4357 59.317C30.4311 59.2591 32.8697 57.1617 32.8697 54.6425V42.4541C32.8697 38.9532 36.3377 36.1068 40.6031 36.1068C44.8667 36.1068 48.3365 38.9532 48.3365 42.4541V54.6425C48.3365 57.1617 50.7733 59.2591 53.7688 59.317C55.8963 59.3579 57.907 58.3733 58.8745 56.8076C59.0601 56.5072 58.9089 56.2477 58.8367 56.1489C58.7594 56.0459 58.5325 55.8062 58.0926 55.8062C57.7712 55.8062 57.4773 55.9543 57.3278 56.1926C56.637 57.2929 55.2209 57.9657 53.712 57.9036C51.6601 57.8204 50.055 56.407 50.055 54.6876V42.031C50.055 39.4779 48.5238 37.0885 45.9597 35.6385C43.3768 34.1772 41.8353 31.8089 41.8353 29.3024V29.2657C41.8353 27.4123 43.6724 25.9044 45.9305 25.9044H50.6256C51.337 25.9044 51.9145 26.3784 51.9145 26.9623C51.9145 27.5463 51.337 28.0202 50.6256 28.0202H48.4224V29.3122C48.4224 29.8962 47.845 30.3701 47.1335 30.3701C46.4203 30.3701 45.8446 29.8962 45.8446 29.3122V28.023C45.0472 28.0597 44.4131 28.6028 44.4131 29.2657V29.3024C44.4131 31.1135 45.537 32.8301 47.4222 33.8965C50.6857 35.7414 52.6328 38.7825 52.6328 42.031V46.9114C52.6328 48.1498 53.2291 49.3107 54.3135 50.1796C55.3962 51.047 56.8226 51.5083 58.3349 51.4801C61.3303 51.4208 63.7689 49.3248 63.7689 46.8056ZM58.0823 25.2076C60.4848 26.0271 63.1794 25.3811 64.6728 23.7096C56.9549 21.3258 48.8658 20.117 40.6031 20.117C32.3386 20.117 24.2495 21.3258 16.5316 23.7096C18.025 25.3811 20.7196 26.0285 23.1221 25.2076C28.6902 23.3062 34.5727 22.3428 40.6031 22.3428C46.6334 22.3428 52.5142 23.3062 58.0823 25.2076ZM45.7587 63.2298V54.6425V45.7689V42.4541C45.7587 40.1211 43.4455 38.2225 40.6031 38.2225C37.7606 38.2225 35.4475 40.1211 35.4475 42.4541V45.7689V54.6425V63.2298C35.4475 63.6191 35.8324 63.935 36.3067 63.935C36.7793 63.935 37.166 63.6191 37.166 63.2298V45.9099C37.166 45.326 37.7417 44.852 38.4549 44.852C39.1664 44.852 39.7438 45.326 39.7438 45.9099V56.8415C39.7438 57.2294 40.1287 57.5467 40.6031 57.5467C41.0757 57.5467 41.4623 57.2294 41.4623 56.8415V45.9099C41.4623 45.326 42.038 44.852 42.7512 44.852C43.4627 44.852 44.0401 45.326 44.0401 45.9099V63.2298C44.0401 63.6191 44.4251 63.935 44.8994 63.935C45.372 63.935 45.7587 63.6191 45.7587 63.2298ZM24.277 34.1532V27.1062C24.222 27.1245 24.167 27.1414 24.112 27.1612C23.6016 27.3347 23.0809 27.4645 22.5585 27.5505V34.1532C22.5585 35.8952 20.8313 37.3128 18.7089 37.3128C16.5866 37.3128 14.8594 35.8952 14.8594 34.1532V31.5296C14.8594 31.1403 14.4728 30.8243 14.0002 30.8243C13.5258 30.8243 13.1409 31.1403 13.1409 31.5296V34.1532C13.1409 36.6724 15.6379 38.7233 18.7089 38.7233C21.7782 38.7233 24.277 36.6724 24.277 34.1532Z" fill="#4D4D4D"/>
<path id="Vector_9" d="M43.8958 40.0012C44.5575 40.217 44.8805 40.832 44.6193 41.375C44.4183 41.7897 43.9336 42.0436 43.4198 42.0436C43.2634 42.0436 43.1019 42.0197 42.9472 41.9689C41.4349 41.478 39.7696 41.478 38.259 41.9689C37.5974 42.1833 36.8481 41.9181 36.5852 41.375C36.324 40.832 36.6488 40.217 37.3104 40.0012C39.4328 39.3114 41.7717 39.3114 43.8958 40.0012Z" fill="#4D4D4D"/>
<path id="Vector_10" d="M40.6031 7.75519C43.492 7.75519 45.8446 9.68479 45.8446 12.0573C45.8446 14.4298 43.492 16.3594 40.6031 16.3594C37.7125 16.3594 35.3616 14.4298 35.3616 12.0573C35.3616 9.68479 37.7125 7.75519 40.6031 7.75519ZM43.2668 12.0573C43.2668 10.8513 42.0707 9.87098 40.6031 9.87098C39.1338 9.87098 37.9394 10.8513 37.9394 12.0573C37.9394 13.2619 39.1338 14.2436 40.6031 14.2436C42.0707 14.2436 43.2668 13.2619 43.2668 12.0573Z" fill="#4D4D4D"/>
</g>
</g>
</g>
</g>
<defs>
<clipPath id="clip0_54_131">
<rect width="79.5164" height="65.2649" fill="white" transform="translate(0.844238 0.821167)"/>
</clipPath>
</defs>
</svg>
